<?xml version="1.0" encoding="utf-8"?>
<!-- Generator: Adobe Illustrator 28.0.0, SVG Export Plug-In . SVG Version: 6.00 Build 0)  -->
<svg version="1.1" id="Layer_1" xmlns="http://www.w3.org/2000/svg" xmlns:xlink="http://www.w3.org/1999/xlink" x="0px" y="0px"
	 width="470px" height="470px" viewBox="0 0 470 470" style="enable-background:new 0 0 470 470;" xml:space="preserve">
<style type="text/css">
	.st0{fill:#BC1E2F;}
	.st1{fill:#0A080A;}
</style>
<path class="st0" d="M258.7,362.3c-5.8,3.2-13.4,6.4-20.2,6.4c-7,0-14.4,0.6-21.1-1.3c-4.2-1.3-8-2.9-11.8-5.4
	c4.8-0.6,10.2-1,14.4-3.2c0.3,0,0.3,0.3,0,0c0-0.3,0.3-0.3,0,0c-4.8,0.6-10.9,1.3-15.7,1.3c-1.9,0-3.5-0.3-5.4-0.6
	c-2.9-0.3-4.2-2.6-5.1-5.1c-2.9-7.4-2.6-14.7,1.9-21.4c4.2-5.8,7-12.2,8.6-19.2c0-0.6,0.3-1,0.3-1.6c0,0,0-0.3-0.3-0.6
	c-1.3,2.2-2.6,4.5-3.8,6.4c-1,1.6-1.9,4.2-3.2,3.8c-1.6-0.3-1-2.9-1.3-4.5c-1.3-9-2.2-18.2-3.8-27.2c-1.3-7.4-4.5-13.8-9.3-19.5
	c-2.2-2.9-3.2-6.1-2.6-9.6c0.6-3.8,1.6-7.7,2.2-11.8c-1.3,2.2-2.2,4.2-3.2,5.8c-5.8,8.6-14.1,12.5-24.3,12.2s-19.2-4.5-27.5-10.2
	c-3.2-2.2-3.5-3.5-1.9-7c4.2-8,10.6-13.4,18.6-17c8.6-3.8,17.9-4.2,27.2-1.6c1,0.3,2.2,0.6,3.5,0.6c2.2,0.3,3.5-1.3,2.9-3.5
	c-0.6-2.6-2.9-4.2-5.4-4.8c-14.4-3.5-26.2-11.5-37.4-20.8c-20.8-17.3-35.8-39-46.4-64c-4.5-10.9-8.3-22.1-11.2-33.6
	c-0.3-1.3-1-3.2,0.3-3.8c1.3-0.6,2.6,1,3.5,2.2c6.4,6.7,11.8,14.4,17.9,21.4c12.2,14.7,25.6,28.1,40.9,39.7
	c15,11.5,31.7,19.8,50.2,24.3c6.7,1.6,13.1,3.5,19.8,4.8c1.6,0.3,3.2,0,4.8-0.6c5.4-2.9,11.2-4.2,17.3-4.5
	c5.4-0.3,11.2-0.3,15.7,3.2c3.2,2.6,6.7,2.6,10.2,1.9c15.4-3.5,30.7-7,45.1-13.4c15.4-7,28.8-17,41.3-28.1
	c14.7-13.1,27.5-28.1,40-43.2c1.9-2.2,3.5-4.5,5.8-6.1c0.6-0.6,1.3-1.3,2.2-1c1,0.6,0.6,1.6,0.3,2.2c-0.6,4.5-2.2,8.6-3.5,13.1
	c-5.4,17-12.5,33.3-22.1,48.3c-13.8,21.4-31,39-53.7,51.2c-5.8,3.2-11.5,5.8-17.9,7c-2.6,0.6-4.5,1.6-5.8,3.8
	c-0.6,1.3-1,2.6-0.3,3.5c1,1.3,2.2,1.3,3.5,1c2.9-0.6,5.8-1.3,8.6-1.9c15.7-2.6,32.9,5.1,40.3,18.6c0.3,0.6,0.6,1.3,1,1.9
	c1.3,2.9,1,3.8-1.6,5.8c-9.9,7-20.8,11.5-33.3,10.6c-9.6-1-16.6-5.4-21.8-14.1c-0.3-0.6-0.6-1.6-1.6-1.9c-0.3,1.9,0.3,3.5,0.6,5.4
	c0.3,2.2,1,4.2,1.3,6.4c0.3,2.9-0.3,5.4-2.2,7.4c-6.7,7.4-9.9,16.3-11.2,25.9c-1,8-2.2,16.3-3.5,24.3c0,0.6,0,1.6-0.6,1.9
	c-1,0.3-1.3-1-1.6-1.3c-2.2-2.6-3.8-5.4-5.4-8.6c-0.3-0.6-0.6-1.6-1.3-1.9c0.6,2.9,1.6,5.8,2.2,9c1.3,4.5,3.8,8.6,6.4,12.5
	c2.9,4.2,5.1,9,4.8,14.1c0,3.2-1,6.4-2.2,9.3c-1.3,2.9-3.2,4.2-6.4,4.5c-6.7,0.6-13.1,0-19.8-1c-1,0-1.9-0.3-2.9-0.3
	c1.3,1,2.9,1.3,4.2,1.6c1.6,0.3,3.2,0.6,4.8,1 M153.5,263.5c6.7-0.3,12.8-1.3,17.9-5.1c4.5-3.5,6.7-8.3,6.7-14.1c0-0.6,0-1.6-1-1.9
	c-0.6-0.3-1,0.3-1.6,0.6c-5.1,5.1-11.5,6.7-18.2,6.7c-1.6,0-3.2,0.3-4.8,1c-3.5,1.6-3.5,1.6-3.2-2.6c0.3-1.9-1-3.2-2.9-2.9
	c-0.6,0-1.6,0.3-2.2,1c-1.3,0.6-1.9,0.6-2.2-1c-0.6-2.6-1.6-2.9-3.8-1.9c-4.2,1.6-7,4.5-9.6,8c-1,1.3-1,2.6,0.6,3.5
	C136.9,260.3,144.9,263.2,153.5,263.5z M313.1,262.5c7.4-0.3,14.7-2.6,21.4-6.4c1.3-0.6,1.9-1.6,1.3-2.9c-1.9-4.2-4.8-7.4-9-9.3
	c-1.6-0.6-2.6,0-3.2,1.3c-0.6,2.2-1.6,2.2-2.9,1c-1-1-2.2-1-3.5-0.3c-1.3,0.6-1,1.9-1,2.9c0,0.3,0,1,0,1.3c0,0.6,0.3,1.3-0.3,1.6
	c-0.6,0.3-1,0-1.6-0.3c-1.6-1-3.2-1.9-5.1-2.2c-6.7-0.3-13.1-2.2-17.3-8c-1-1-1.6-1-1.9,0.3c-0.3,0.6-0.3,1.3-0.3,2.2
	c-0.3,7,2.6,12.2,9,15.7C302.9,261.3,307.4,262.2,313.1,262.5z M203.4,275c2.2,0,4.5-0.3,6.7-1.3c1-0.3,2.2-0.6,2.2-1.9
	c0-1-1.3-1.3-2.2-1.6c-7.7-2.9-13.8-7.4-19.5-13.1c-0.6-0.6-1.3-1.6-2.2-1.3c-1,0.3-1,1.6-1,2.2C187.1,265.4,191.9,275,203.4,275z
	 M265.5,275c0.6,0,1.3,0,2.2-0.3c7.7-1,14.1-8.6,13.4-16.3c0-1,0-1.9-1-2.6c-1-0.3-1.6,0.6-1.9,1c-5.8,6.1-12.5,10.6-20.2,13.4
	c-0.6,0.3-1.6,0.6-1.6,1.3s0.6,1.3,1.6,1.6C260,274.4,262.6,275,265.5,275z M257.1,336.4c-4.8,0-9.6,3.5-10.6,7.7c0,0.3-0.3,1,0,1.6
	c0.6,0.3,1,0,1.3-0.3c1.3-0.6,2.2-1.3,3.5-1.9c1.6-1,2.6-0.6,3.8,0.6c1.9,1.9,4.5,2.9,7.4,2.9c3.2,0,4.5-1.9,3.2-4.8
	C264.2,338.3,261.3,336.4,257.1,336.4z M205.6,336.4c-2.6,0-5.4,1.9-7.4,5.8c-1.3,2.6,0,4.5,2.9,4.5c2.2,0,4.5,0,5.8-1.6
	c2.9-3.2,5.8-2.2,8.6-0.3l0.3,0.3c0.6,0,1,1,1.6,0.3c0.3-0.3,0-1,0-1.6C216.5,339.6,212,336.4,205.6,336.4z"/>
<path class="st1" d="M451.5,470l0.5-0.5c0,0,0,0,0-0.5C451.5,469.5,451.5,469.5,451.5,470L451.5,470z"/>
</svg>
